<svg xmlns="http://www.w3.org/2000/svg" width="24" height="24">
  <g fill="none" fill-rule="evenodd">
    <path d="M0 0h24v24H0z" />
    <path fill="#000" fill-rule="nonzero"
      d="M17 21a4 4 0 1 0 0-8 4 4 0 0 0 0 8ZM4 11h6c.55 0 1-.45 1-1V4c0-.55-.45-1-1-1H4c-.55 0-1 .45-1 1v6c0 .55.45 1 1 1Zm2.194 2.475-3.551 6.02c-.391.654.067 1.505.811 1.505h7.092c.744 0 1.202-.851.811-1.505l-3.541-6.02a.93.93 0 0 0-1.622 0ZM21 7c0 .378-.128.694-.384.95a1.287 1.287 0 0 1-.95.383h-1.333v1.334c0 .377-.127.694-.382.949A1.291 1.291 0 0 1 17 11c-.378 0-.695-.128-.95-.384a1.29 1.29 0 0 1-.383-.95V8.334h-1.334c-.377 0-.694-.128-.95-.384A1.29 1.29 0 0 1 13 7c0-.378.128-.694.383-.95.256-.255.573-.383.95-.383h1.334V4.333c0-.377.127-.694.382-.949.256-.256.573-.384.951-.384s.695.128.95.384c.256.255.383.572.383.95v1.333h1.334c.377 0 .694.128.949.384.256.255.384.571.384.949Z" />
  </g>
</svg>