<svg xmlns="http://www.w3.org/2000/svg" width="24" height="24">
  <g fill="none" fill-rule="evenodd">
    <path d="M0 0h24v24H0z" />
    <path fill="#000" fill-rule="nonzero"
      d="M17 21a4 4 0 1 0 0-8 4 4 0 0 0 0 8ZM4 11h6c.55 0 1-.45 1-1V4c0-.55-.45-1-1-1H4c-.55 0-1 .45-1 1v6c0 .55.45 1 1 1Zm2.194 2.475-3.551 6.02c-.391.654.067 1.505.811 1.505h7.092c.744 0 1.202-.851.811-1.505l-3.541-6.02a.93.93 0 0 0-1.622 0ZM16.41 2.372l-3.845 3.836a.901.901 0 0 0 0 1.276l3.845 3.845a.901.901 0 0 0 1.275 0l3.845-3.845a.901.901 0 0 0 0-1.276l-3.836-3.836a.912.912 0 0 0-1.284 0Z" />
  </g>
</svg>